<?xml version="1.0" encoding="utf-8"?>
<!-- Generator: Adobe Illustrator 16.0.0, SVG Export Plug-In . SVG Version: 6.00 Build 0)  -->
<!DOCTYPE svg PUBLIC "-//W3C//DTD SVG 1.1//EN" "http://www.w3.org/Graphics/SVG/1.1/DTD/svg11.dtd">
<svg version="1.1" id="Layer_1" xmlns="http://www.w3.org/2000/svg" xmlns:xlink="http://www.w3.org/1999/xlink" x="0px" y="0px"
	 width="117.399px" height="117.919px" viewBox="0 -0.019 117.399 117.919" enable-background="new 0 -0.019 117.399 117.919"
	 xml:space="preserve">
<g transform="matrix( 1, 0, 0, 1, 0,0) ">
	<g>
		<g id="Layer0_0_FILL">
			<path fill="#FFFFFF" d="M47.25,113.6v-5.05c0-0.1,0-0.2,0-0.3c-0.167,1.1-1.233,2.033-3.2,2.8c-2.167,0.833-4.75,1.25-7.75,1.25
				h-0.4c-3,0-5.566-0.417-7.699-1.25c-2-0.767-3.067-1.7-3.2-2.8c0,0.1,0,0.2,0,0.3v5.05c0,1.167,1.066,2.183,3.2,3.05
				c2.133,0.833,4.699,1.25,7.699,1.25h0.4c3,0,5.583-0.417,7.75-1.25C46.183,115.783,47.25,114.767,47.25,113.6 M46.85,106.05
				c-0.267-0.966-1.3-1.8-3.1-2.5c-2.067-0.8-4.567-1.2-7.5-1.2H35.9c-2.933,0-5.449,0.4-7.55,1.2c-1.767,0.7-2.767,1.534-3,2.5
				c-0.033,0.067-0.05,0.134-0.05,0.2c0.133,1.033,1.15,1.934,3.05,2.7c2.101,0.8,4.617,1.2,7.55,1.2h0.351
				c2.933,0,5.433-0.4,7.5-1.2c1.933-0.767,2.967-1.667,3.1-2.7C46.85,106.184,46.85,106.117,46.85,106.05 M53.1,95.75
				c0,0.066-0.017,0.133-0.05,0.2c0.167,1.033,1.2,1.933,3.1,2.7c2.101,0.8,4.617,1.2,7.551,1.2h0.35c2.9,0,5.4-0.4,7.5-1.2
				c1.934-0.767,2.967-1.667,3.1-2.7c0-0.067-0.017-0.134-0.05-0.2c-0.267-0.967-1.283-1.8-3.05-2.5c-2.1-0.8-4.6-1.2-7.5-1.2H63.7
				c-2.934,0-5.45,0.4-7.551,1.2C54.383,93.95,53.366,94.783,53.1,95.75 M52.8,98c-0.033,0.066-0.05,0.15-0.05,0.25v5.05
				c0,1.167,1.066,2.184,3.2,3.05c2.166,0.833,4.75,1.25,7.75,1.25H64.1c3,0,5.583-0.417,7.75-1.25c2.134-0.867,3.2-1.883,3.2-3.05
				v-5.05c0-0.1-0.017-0.184-0.05-0.25c-0.134,1.066-1.184,1.983-3.15,2.75c-1.566,0.6-3.333,0.983-5.3,1.15
				c-0.8,0.067-1.617,0.1-2.45,0.1H63.7c-3,0-5.584-0.417-7.75-1.25C53.984,99.983,52.933,99.066,52.8,98 M0,90.6v5.3
				c0,0.867,0.566,1.65,1.7,2.35c0.399,0.233,0.899,0.467,1.5,0.7c2.133,0.833,4.716,1.25,7.75,1.25h0.35c3,0,5.583-0.417,7.75-1.25
				c0.533-0.233,1.017-0.467,1.45-0.7c1.166-0.7,1.75-1.483,1.75-2.35l-0.05-5.05c-0.101,0.367-0.334,0.716-0.7,1.05
				c-0.533,0.534-1.351,1.017-2.45,1.45c-2.167,0.833-4.75,1.25-7.75,1.25h-0.35c-3.034,0-5.617-0.417-7.75-1.25
				C1.2,92.583,0.133,91.667,0,90.6 M0,98.4c0,0.067,0,0.15,0,0.25v5.05c0,0.866,0.583,1.65,1.75,2.35
				c0.399,0.233,0.883,0.467,1.45,0.7c2.133,0.833,4.716,1.25,7.75,1.25h0.35c3,0,5.583-0.417,7.75-1.25c0.533-0.2,1-0.417,1.4-0.65
				c1.199-0.7,1.8-1.5,1.8-2.4v-5.05c0-0.1,0-0.183,0-0.25c-0.167,1.067-1.233,1.983-3.2,2.75c-2.167,0.867-4.75,1.3-7.75,1.3h-0.35
				c-3.034,0-5.617-0.434-7.75-1.3C1.2,100.383,0.133,99.467,0,98.4 M11.25,84.65H10.9c-2.933,0-5.449,0.4-7.55,1.2
				c-1.767,0.7-2.783,1.533-3.05,2.5c0,0.066,0,0.133,0,0.2c0.133,1.034,1.15,1.934,3.05,2.7c2.101,0.833,4.617,1.25,7.55,1.25
				h0.351c1.8,0,3.45-0.15,4.95-0.45c0.899-0.2,1.75-0.466,2.55-0.8c0.3-0.1,0.583-0.217,0.85-0.35c1.4-0.667,2.15-1.45,2.25-2.35
				c0-0.066-0.017-0.133-0.05-0.2c-0.233-0.967-1.25-1.8-3.05-2.5c-0.134-0.034-0.283-0.083-0.45-0.15
				c-0.667-0.233-1.367-0.434-2.1-0.6C14.7,84.8,13.05,84.65,11.25,84.65 M15.15,73.8c0,0.067,0,0.15,0,0.25v5.05
				c0,0.733,0.417,1.417,1.25,2.05c0.5,0.367,1.134,0.7,1.9,1h0.05c0.233,0.1,0.467,0.184,0.7,0.25c0.566,0.2,1.184,0.367,1.85,0.5
				c1.567,0.333,3.301,0.5,5.2,0.5h0.351c3.033,0,5.616-0.417,7.75-1.25c0.166-0.066,0.35-0.133,0.55-0.2
				c-0.567-1.667-0.934-3.384-1.101-5.15c-2.033,0.667-4.433,1-7.199,1H26.1c-1.934,0-3.667-0.15-5.2-0.45
				c-0.933-0.2-1.783-0.467-2.55-0.8C16.35,75.783,15.283,74.867,15.15,73.8 M26.45,70.1H26.1c-3.033,0-5.616-0.417-7.75-1.25
				c-2-0.8-3.066-1.733-3.2-2.8c0,0.1,0,0.2,0,0.3v5.05c0,1.167,1.067,2.184,3.2,3.05c2.134,0.833,4.717,1.25,7.75,1.25h0.351
				c2.699,0,5.05-0.333,7.05-1c0-0.233,0-0.467,0-0.7c0-1.6,0.149-3.283,0.45-5.05C31.85,69.717,29.35,70.1,26.45,70.1 M37.4,50.5
				c-0.166,1.066-1.233,2-3.199,2.8c-2.134,0.833-4.717,1.25-7.75,1.25H26.1c-3.033,0-5.616-0.417-7.75-1.25
				c-2-0.8-3.066-1.733-3.2-2.8c0,0.1,0,0.184,0,0.25v5.1c0,0.867,0.567,1.633,1.7,2.3c0.434,0.267,0.934,0.517,1.5,0.75
				c2.134,0.833,4.717,1.25,7.75,1.25h0.351c3.033,0,5.616-0.417,7.75-1.25c0.533-0.233,1.017-0.466,1.449-0.7
				c1.167-0.7,1.75-1.483,1.75-2.35v-5.1C37.4,50.684,37.4,50.6,37.4,50.5 M36.45,59.85c-0.534,0.466-1.284,0.883-2.25,1.25
				c-2.134,0.833-4.717,1.25-7.75,1.25H26.1c-3.033,0-5.616-0.417-7.75-1.25c-2-0.767-3.066-1.7-3.2-2.8c0,0.1,0,0.184,0,0.25v5.1
				c0,0.867,0.584,1.65,1.75,2.35c0.4,0.233,0.884,0.467,1.45,0.7c2.134,0.833,4.717,1.25,7.75,1.25h0.351
				c3.033,0,5.616-0.417,7.75-1.25c0.066-0.034,0.133-0.067,0.199-0.1C34.9,64.467,35.583,62.217,36.45,59.85 M37,48.3
				c-0.267-0.966-1.3-1.8-3.101-2.5c-2.066-0.8-4.566-1.2-7.5-1.2h-0.35c-2.934,0-5.434,0.4-7.5,1.2c-1.8,0.7-2.816,1.534-3.05,2.5
				c-0.033,0.067-0.05,0.134-0.05,0.2c0.133,1.033,1.166,1.934,3.1,2.7c2.066,0.8,4.566,1.2,7.5,1.2h0.35c2.934,0,5.434-0.4,7.5-1.2
				c1.934-0.767,2.967-1.667,3.101-2.7C37,48.434,37,48.367,37,48.3 M90.8,26.15c-2.3,0.434-4.566,0.817-6.8,1.15
				c3.6,7.7,8.45,15.284,14.55,22.75l-4,1.9C88.083,44.017,83.067,35.967,79.5,27.8c-0.567,0.067-1.101,0.117-1.601,0.15
				c-0.1,5.533,0.301,11.267,1.2,17.2l-4.35,0.25c-0.934-5.966-1.334-11.716-1.2-17.25c-4.434,0.1-8.75-0.133-12.95-0.7
				c-2.1,1.667-4.133,3.667-6.1,6c-1.733,2.066-3.417,4.417-5.05,7.05c-2.768,4.467-5.101,8.633-7,12.5c-0.233,0.5-0.467,1-0.7,1.5
				c-0.967,2.066-1.8,4.05-2.5,5.95c-0.8,2.167-1.417,4.216-1.851,6.15c-0.533,2.3-0.8,4.45-0.8,6.45c0,0.1,0,0.2,0,0.3
				c0,0.6,0.017,1.2,0.05,1.8c0.101,1.5,0.334,2.95,0.7,4.35c0.467,1.633,1.083,3.217,1.851,4.75c1.966,3.7,5.017,7.066,9.149,10.1
				c0.767,0.566,1.55,1.1,2.351,1.6v-0.9c0.033-0.1,0.066-0.183,0.1-0.25c0.3-1.267,1.533-2.35,3.7-3.25
				C57.033,90.517,60.083,90,63.65,90h0.45c3.533,0,6.566,0.517,9.101,1.55c2.199,0.9,3.449,1.983,3.75,3.25
				c0.033,0.067,0.05,0.15,0.05,0.25v8h0.05c0.9,0,1.816-0.017,2.75-0.05c9.934-0.467,18.5-3.35,25.7-8.65
				c0.833-0.567,1.6-1.167,2.3-1.8h0.05c0.967-0.833,1.867-1.7,2.7-2.6c0.133-0.134,0.283-0.284,0.45-0.45
				c4.267-4.7,6.399-10.083,6.399-16.15c0-3.434-0.649-7.25-1.949-11.45c-0.367-1.033-0.75-2.1-1.15-3.2
				c-0.367-0.9-0.75-1.833-1.15-2.8c-0.399-0.9-0.816-1.85-1.25-2.85c-0.066-0.066-0.116-0.167-0.149-0.3
				c-0.567-1.2-1.184-2.434-1.851-3.7c-0.533-1-1.083-2.017-1.649-3.05c-0.634-1.167-1.3-2.333-2-3.5
				c-2.067-3.434-4.267-6.45-6.601-9.05C96.85,30.417,93.9,27.983,90.8,26.15 M95.15,17.85c0.167-0.167,0.317-0.317,0.45-0.45
				C103.567,9.633,104.7,5.5,99,5c-5.733-0.533-10.483,0.117-14.25,1.95C81.85,0.283,78.033-1.6,73.3,1.3
				c-1.967,1.2-3.8,3.233-5.5,6.1C63.366,4.566,58.767,3.684,54,4.75c-4.8,1-5.667,2.883-2.601,5.65
				c3.033,2.767,4.733,4.317,5.101,4.65c1.2,1.1,2.316,2.35,3.35,3.75c0.833,1.1,1.75,2.634,2.75,4.6
				c3.7,0.4,7.483,0.534,11.351,0.4c0.232,0,0.466-0.017,0.699-0.05c5.533-0.2,11.233-0.934,17.101-2.2
				C93.116,20.117,94.25,18.883,95.15,17.85z"/>
		</g>
	</g>
</g>
</svg>
