<?xml version="1.0" encoding="utf-8"?>
<!-- Generator: Adobe Illustrator 16.0.0, SVG Export Plug-In . SVG Version: 6.00 Build 0)  -->
<!DOCTYPE svg PUBLIC "-//W3C//DTD SVG 1.1//EN" "http://www.w3.org/Graphics/SVG/1.1/DTD/svg11.dtd">
<svg version="1.1" id="Layer_1" xmlns="http://www.w3.org/2000/svg" xmlns:xlink="http://www.w3.org/1999/xlink" x="0px" y="0px"
	 width="117.398px" height="117.918px" viewBox="0 0 117.398 117.918" enable-background="new 0 0 117.398 117.918"
	 xml:space="preserve">
<g id="Layer0_0_FILL">
	<g id="XMLID_1_">
		<g>
			<path fill="#BBBDBF" d="M98.999,5c5.7,0.5,4.57,4.63-3.399,12.4c-0.131,0.13-0.28,0.28-0.45,0.45c-0.9,1.03-2.03,2.27-3.4,3.7
				c-5.87,1.27-11.569,2-17.1,2.2c-0.23,0.03-0.47,0.05-0.7,0.05c-3.87,0.13-7.65,0-11.35-0.4c-1-1.97-1.92-3.5-2.75-4.6
				c-1.03-1.4-2.15-2.65-3.351-3.75c-0.37-0.33-2.07-1.88-5.1-4.65c-3.07-2.77-2.2-4.65,2.6-5.65c4.77-1.07,9.37-0.18,13.8,2.65
				c1.7-2.87,3.53-4.9,5.5-6.1c4.73-2.9,8.551-1.02,11.45,5.65C88.52,5.12,93.27,4.469,98.999,5z"/>
			<path fill="#BBBDBF" d="M74.6,95.75c0.029,0.07,0.05,0.13,0.05,0.2c-0.13,1.029-1.16,1.93-3.101,2.7
				c-2.1,0.8-4.6,1.199-7.5,1.199h-0.35c-2.93,0-5.45-0.399-7.55-1.199c-1.9-0.771-2.93-1.671-3.1-2.7c0.03-0.07,0.05-0.13,0.05-0.2
				c0.27-0.97,1.28-1.8,3.05-2.5c2.1-0.8,4.62-1.2,7.55-1.2h0.35c2.9,0,5.4,0.4,7.5,1.2C73.32,93.95,74.329,94.78,74.6,95.75z"/>
			<path fill="#BBBDBF" d="M52.8,98c0.13,1.07,1.18,1.979,3.15,2.75c2.17,0.83,4.75,1.25,7.75,1.25h0.4c0.83,0,1.649-0.03,2.449-0.1
				c1.971-0.171,3.73-0.551,5.301-1.15c1.97-0.771,3.02-1.68,3.149-2.75c0.03,0.07,0.05,0.15,0.05,0.25v5.05
				c0,1.17-1.069,2.18-3.199,3.05c-2.17,0.83-4.75,1.25-7.75,1.25h-0.4c-3,0-5.58-0.42-7.75-1.25c-2.13-0.87-3.2-1.88-3.2-3.05
				v-5.05C52.749,98.15,52.769,98.07,52.8,98z"/>
			<path fill="#BBBDBF" d="M50.8,94.799c-0.03,0.07-0.07,0.15-0.1,0.25v0.9c-0.8-0.5-1.58-1.03-2.35-1.601
				c-4.13-3.029-7.18-6.399-9.15-10.1c-0.77-1.53-1.38-3.12-1.85-4.75c-0.37-1.4-0.6-2.85-0.7-4.35c-0.03-0.601-0.05-1.2-0.05-1.801
				c0-0.1,0-0.199,0-0.3c0-2,0.27-4.149,0.8-6.45c0.43-1.93,1.05-3.979,1.85-6.149c0.7-1.9,1.53-3.88,2.5-5.95
				c0.23-0.5,0.47-1,0.7-1.5c1.9-3.87,4.23-8.03,7-12.5c1.63-2.63,3.32-4.98,5.05-7.05c1.97-2.33,4-4.33,6.101-6
				c4.199,0.57,8.52,0.8,12.949,0.7c-0.13,5.53,0.271,11.28,1.2,17.25l4.351-0.25c-0.9-5.93-1.301-11.67-1.2-17.2
				c0.5-0.03,1.03-0.08,1.6-0.15c3.57,8.17,8.58,16.22,15.05,24.15l4-1.9c-6.1-7.47-10.949-15.05-14.55-22.75
				c2.23-0.33,4.5-0.72,6.8-1.15c3.101,1.83,6.051,4.27,8.851,7.3c2.34,2.6,4.54,5.62,6.6,9.05c0.7,1.17,1.37,2.33,2,3.5
				c0.57,1.03,1.12,2.05,1.65,3.05c0.67,1.27,1.29,2.5,1.85,3.7c0.04,0.13,0.09,0.23,0.15,0.3c0.439,1,0.85,1.95,1.25,2.85
				c0.399,0.97,0.78,1.9,1.149,2.8c0.4,1.1,0.78,2.17,1.15,3.2c1.3,4.199,1.95,8.02,1.95,11.449c0,6.07-2.13,11.45-6.4,16.15
				c-0.17,0.17-0.319,0.32-0.45,0.45c-0.83,0.899-1.729,1.77-2.699,2.6h-0.051c-0.699,0.63-1.47,1.23-2.3,1.8
				c-7.2,5.301-15.76,8.181-25.7,8.65c-0.93,0.03-1.85,0.05-2.75,0.05h-0.05v-8c0-0.1-0.02-0.18-0.05-0.25
				c-0.3-1.27-1.55-2.35-3.75-3.25c-2.53-1.03-5.57-1.55-9.1-1.55h-0.45c-3.57,0-6.62,0.52-9.15,1.55
				C52.329,92.45,51.099,93.53,50.8,94.799z"/>
			<path fill="#BBBDBF" d="M24.999,108.25c0.13,1.1,1.2,2.03,3.2,2.8c2.13,0.83,4.7,1.25,7.7,1.25h0.4c3,0,5.58-0.42,7.75-1.25
				c1.97-0.77,3.03-1.7,3.2-2.8c0,0.1,0,0.2,0,0.3v5.05c0,1.17-1.07,2.181-3.2,3.051c-2.17,0.829-4.75,1.25-7.75,1.25h-0.4
				c-3,0-5.57-0.421-7.7-1.25c-2.13-0.87-3.2-1.881-3.2-3.051v-5.05C24.999,108.45,24.999,108.349,24.999,108.25z"/>
			<path fill="#BBBDBF" d="M46.849,106.049c0,0.07,0,0.13,0,0.2c-0.13,1.03-1.17,1.93-3.1,2.7c-2.07,0.8-4.57,1.2-7.5,1.2H35.9
				c-2.93,0-5.45-0.4-7.55-1.2c-1.9-0.771-2.92-1.67-3.05-2.7c0-0.07,0.02-0.13,0.05-0.2c0.23-0.97,1.23-1.8,3-2.5
				c2.1-0.8,4.62-1.2,7.55-1.2h0.35c2.93,0,5.43,0.4,7.5,1.2C45.55,104.25,46.579,105.08,46.849,106.049z"/>
			<path fill="#BBBDBF" d="M37.4,50.75v5.1c0,0.87-0.58,1.65-1.75,2.35c-0.43,0.23-0.92,0.47-1.45,0.7
				c-2.13,0.83-4.72,1.25-7.75,1.25h-0.35c-3.03,0-5.62-0.421-7.75-1.25c-0.57-0.23-1.07-0.48-1.5-0.75c-1.13-0.67-1.7-1.43-1.7-2.3
				v-5.1c0-0.07,0-0.15,0-0.25c0.13,1.07,1.2,2,3.2,2.8c2.13,0.83,4.72,1.25,7.75,1.25h0.35c3.03,0,5.62-0.42,7.75-1.25
				c1.97-0.8,3.03-1.73,3.2-2.8C37.4,50.6,37.4,50.68,37.4,50.75z"/>
			<path fill="#BBBDBF" d="M36.999,48.299c0,0.07,0,0.13,0,0.2c-0.13,1.03-1.17,1.93-3.1,2.7c-2.07,0.8-4.57,1.2-7.5,1.2h-0.35
				c-2.93,0-5.43-0.4-7.5-1.2c-1.93-0.77-2.97-1.67-3.1-2.7c0-0.07,0.02-0.13,0.05-0.2c0.23-0.97,1.25-1.8,3.05-2.5
				c2.07-0.8,4.57-1.2,7.5-1.2h0.35c2.93,0,5.43,0.4,7.5,1.2C35.699,46.5,36.729,47.33,36.999,48.299z"/>
			<path fill="#BBBDBF" d="M34.749,81.95c-0.2,0.069-0.38,0.13-0.55,0.2c-2.13,0.829-4.72,1.25-7.75,1.25h-0.35
				c-1.9,0-3.63-0.171-5.2-0.5c-0.67-0.131-1.28-0.301-1.85-0.5c-0.23-0.061-0.47-0.15-0.7-0.25H18.3c-0.77-0.301-1.4-0.631-1.9-1
				c-0.83-0.631-1.25-1.32-1.25-2.051v-5.05c0-0.1,0-0.18,0-0.25c0.13,1.07,1.2,1.98,3.2,2.75c0.77,0.33,1.62,0.601,2.55,0.8
				c1.53,0.301,3.27,0.45,5.2,0.45h0.35c2.77,0,5.17-0.33,7.2-1C33.82,78.57,34.179,80.28,34.749,81.95z"/>
			<path fill="#BBBDBF" d="M33.949,68.95c-0.3,1.77-0.45,3.45-0.45,5.05c0,0.229,0,0.47,0,0.7c-2,0.67-4.35,1-7.05,1h-0.35
				c-3.03,0-5.62-0.42-7.75-1.25c-2.13-0.87-3.2-1.88-3.2-3.05v-5.051c0-0.1,0-0.199,0-0.3c0.13,1.07,1.2,2,3.2,2.8
				c2.13,0.83,4.72,1.25,7.75,1.25h0.35C29.349,70.099,31.849,69.719,33.949,68.95z"/>
			<path fill="#BBBDBF" d="M22.199,90.849l0.05,5.051c0,0.869-0.58,1.649-1.75,2.35c-0.43,0.229-0.92,0.47-1.45,0.7
				c-2.17,0.83-4.75,1.25-7.75,1.25h-0.35c-3.03,0-5.62-0.42-7.75-1.25c-0.6-0.23-1.1-0.471-1.5-0.7c-1.13-0.7-1.7-1.48-1.7-2.35
				v-5.301c0.13,1.07,1.2,1.98,3.2,2.75c2.13,0.83,4.72,1.25,7.75,1.25h0.35c3,0,5.58-0.42,7.75-1.25c1.1-0.43,1.92-0.92,2.45-1.449
				C21.869,91.57,22.099,91.219,22.199,90.849z"/>
			<path fill="#BBBDBF" d="M21.8,88.349c0.03,0.07,0.05,0.13,0.05,0.2c-0.1,0.9-0.85,1.68-2.25,2.351
				c-0.27,0.13-0.55,0.25-0.85,0.35c-0.8,0.33-1.65,0.6-2.55,0.8c-1.5,0.3-3.15,0.45-4.95,0.45H10.9c-2.93,0-5.45-0.42-7.55-1.25
				c-1.9-0.771-2.92-1.67-3.05-2.7c0-0.07,0-0.13,0-0.2c0.27-0.97,1.28-1.8,3.05-2.5c2.1-0.8,4.62-1.199,7.55-1.199h0.35
				c1.8,0,3.45,0.149,4.95,0.449c0.73,0.17,1.43,0.37,2.1,0.601c0.17,0.069,0.32,0.12,0.45,0.149
				C20.55,86.549,21.57,87.379,21.8,88.349z"/>
			<path fill="#BBBDBF" d="M15.15,58.299c0.13,1.1,1.2,2.03,3.2,2.8c2.13,0.83,4.72,1.25,7.75,1.25h0.35c3.03,0,5.62-0.42,7.75-1.25
				c0.97-0.37,1.72-0.779,2.25-1.25c-0.87,2.37-1.55,4.62-2.05,6.75c-0.07,0.03-0.13,0.07-0.2,0.101c-2.13,0.83-4.72,1.25-7.75,1.25
				h-0.35c-3.03,0-5.62-0.42-7.75-1.25c-0.57-0.23-1.05-0.471-1.45-0.7c-1.17-0.7-1.75-1.48-1.75-2.35v-5.101
				C15.15,58.479,15.15,58.399,15.15,58.299z"/>
			<path fill="#BBBDBF" d="M-0.001,98.4c0.13,1.069,1.2,1.979,3.2,2.75c2.13,0.869,4.72,1.3,7.75,1.3h0.35c3,0,5.58-0.431,7.75-1.3
				c1.97-0.771,3.03-1.681,3.2-2.75c0,0.069,0,0.149,0,0.25v5.05c0,0.899-0.6,1.7-1.8,2.399c-0.4,0.23-0.87,0.45-1.4,0.65
				c-2.17,0.83-4.75,1.25-7.75,1.25h-0.35c-3.03,0-5.62-0.42-7.75-1.25c-0.57-0.23-1.05-0.47-1.45-0.7
				c-1.17-0.7-1.75-1.479-1.75-2.35v-5.05C-0.001,98.549-0.001,98.469-0.001,98.4z"/>
		</g>
		<g>
		</g>
	</g>
</g>
</svg>
